<?xml version="1.0" encoding="UTF-8"?>
<svg viewBox="0 -20 512 511" xmlns="http://www.w3.org/2000/svg">
<path d="m67.18 48.395h-0.10156c-5.5234 0-10 4.4766-10 10 0 5.5234 4.4766 10 10 10h0.10156c5.5234 0 10-4.4766 10-10 0-5.5234-4.4766-10-10-10z"/>
<path d="m116.71 48.395h-0.10156c-5.5234 0-10 4.4766-10 10 0 5.5234 4.4766 10 10 10h0.10156c5.5234 0 10-4.4766 10-10 0-5.5234-4.4766-10-10-10z"/>
<path d="m166.24 48.395h-0.10156c-5.5234 0-10 4.4766-10 10 0 5.5234 4.4766 10 10 10h0.10156c5.5234 0 10-4.4766 10-10 0-5.5234-4.4766-10-10-10z"/>
<path d="m444.31 48.395h-192.93c-5.5234 0-10 4.4766-10 10 0 5.5195 4.4766 10 10 10h192.93c5.5234 0 10-4.4805 10-10 0-5.5234-4.4766-10-10-10z"/>
<path d="m262.89 452.44c-2.6289 0-5.1992 1.0703-7.0703 2.9297-1.8594 1.8594-2.9297 4.4414-2.9297 7.0703s1.0703 5.2109 2.9297 7.0703c1.8711 1.8594 4.4414 2.9297 7.0703 2.9297s5.2109-1.0703 7.0703-2.9297c1.8672-1.8594 2.9297-4.4414 2.9297-7.0703s-1.0625-5.2109-2.9297-7.0703c-1.8594-1.8594-4.4414-2.9297-7.0703-2.9297z"/>
<path d="m480.23 0.5h-448.46c-17.516 0-31.77 14.254-31.77 31.77v408.4c0 17.52 14.254 31.77 31.77 31.77h189.23c5.5234 0 10-4.4766 10-10s-4.4766-10-10-10h-189.23c-6.4883 0-11.77-5.2773-11.77-11.77v-324.38h472v324.38c0 6.4883-5.2812 11.77-11.77 11.77h-176.56c-5.5234 0-10 4.4766-10 10s4.4766 10 10 10h176.56c17.516 0 31.77-14.25 31.77-31.77v-408.4c0-17.516-14.254-31.77-31.77-31.77zm-460.23 95.785v-64.016c0-6.4883 5.2812-11.77 11.77-11.77h448.46c6.4883 0 11.77 5.2812 11.77 11.77v64.02h-472z"/>
<path d="m178.04 230.5c0-19.852-16.148-36-36-36h-33.668c-5.5234 0-10 4.4766-10 10v104c0 5.5234 4.4766 10 10 10h33.668c19.852 0 36-16.148 36-36 0-10.215-4.2812-19.441-11.141-26 6.8594-6.5586 11.141-15.785 11.141-26zm-20 52c0 8.8203-7.1797 16-16 16h-23.668v-32h23.668c8.8203 0 16 7.1758 16 16zm-39.668-36v-32h23.668c8.8242 0 16 7.1797 16 16s-7.1758 16-16 16z"/>
<path d="m206.65 194.5c-5.5234 0-10 4.4766-10 10v80.871c0 18.27 14.863 33.129 33.129 33.129 5.5234 0 10-4.4766 10-10s-4.4766-10-10-10c-7.2383 0-13.129-5.8906-13.129-13.129v-80.871c0-5.5234-4.4766-10-10-10z"/>
<path d="m324.87 282.29c0-19.969-16.242-36.215-36.211-36.215s-36.211 16.246-36.211 36.215 16.246 36.211 36.211 36.211c19.969 0 36.211-16.242 36.211-36.211zm-52.422 0c0-8.9414 7.2734-16.215 16.211-16.215s16.211 7.2734 16.211 16.215c0 8.9375-7.2695 16.211-16.211 16.211s-16.211-7.2734-16.211-16.211z"/>
<path d="m377.41 346.5c-8.9375 0-16.211-7.2734-16.211-16.211 0-5.5234-4.4766-10-10-10s-10 4.4766-10 10c0 19.969 16.246 36.211 36.211 36.211 19.969 0 36.215-16.242 36.215-36.211v-48c0-19.969-16.246-36.215-36.215-36.215-19.965 0-36.211 16.246-36.211 36.215s16.246 36.211 36.211 36.211c5.8281 0 11.332-1.3906 16.215-3.8477v15.637c0 8.9375-7.2734 16.211-16.215 16.211zm0-48c-8.9375 0-16.211-7.2734-16.211-16.211 0-8.9414 7.2734-16.215 16.211-16.215 8.9414 0 16.215 7.2734 16.215 16.215 0 8.9375-7.2734 16.211-16.215 16.211z"/>
<path d="m108.37 416.5h295.26c5.5234 0 10-4.4766 10-10s-4.4766-10-10-10h-295.26c-5.5195 0-10 4.4766-10 10s4.4805 10 10 10z"/>
</svg>
